PathFileType	4	(X/Y/Z)	C:\Users\WrightLab\Desktop\Jo\P4V130.trc
DataRate	CameraRate	NumFrames	NumMarkers	Units	OrigDataRate	OrigDataStartFrame	OrigNumFrames
100.00	100.00	       25	19	mm	100.00	505	       672
Frame#	Time	Headset_Front			Headset_Back			Headset_Left			Headset_Right			Left_Shoulder			Right_Shoulder			Sternum			C7			Left Elbow			Right Elbow			Left Wrist			Right Wrist			Left ASIS			Right ASIS			S2			Left Knee			Right Knee			Left Ankle			Right Ankle			
		X1	Y1	Z1	X2	Y2	Z2	X3	Y3	Z3	X4	Y4	Z4	X5	Y5	Z5	X6	Y6	Z6	X7	Y7	Z7	X8	Y8	Z8	X9	Y9	Z9	X10	Y10	Z10	X11	Y11	Z11	X12	Y12	Z12	X13	Y13	Z13	X14	Y14	Z14	X15	Y15	Z15	X16	Y16	Z16	X17	Y17	Z17	X18	Y18	Z18	X19	Y19	Z19	

505	5.040	109.98809	1736.32898	1874.87964	286.38498	1075.87463	1858.00659							332.38058	1544.66833	1753.29980	44.55872	1564.52734	1649.50159	158.25502	1502.01941	1811.29602				458.32950	1192.03967	1799.57898	-110.66367	1220.78040	1637.89661	414.30731	924.23926	1955.31726	-146.17749	951.17328	1784.26721				-35.26914	1052.19556	1769.54016				288.81256	593.05121	1928.32617	-48.87472	567.11194	1786.99377	247.50674	94.73421	1879.05872	145.01889	268.01630	1442.04297	
506	5.050	109.53629	1738.91150	1883.48840	285.44312	1077.43530	1866.71875							331.86386	1545.98059	1763.08630	45.06087	1566.89734	1656.57544	156.99429	1502.89526	1819.23022				456.93362	1193.92651	1811.73230	-111.75048	1223.35278	1643.62183	410.42957	926.27515	1968.11194	-148.67870	954.20013	1790.27698				-35.29896	1053.82031	1774.95740				288.45319	592.35291	1930.45569	-54.03798	571.41412	1802.37659	247.50674	94.73421	1879.05872	145.65141	276.28711	1457.53430	
507	5.060	109.00088	1741.72266	1892.32166	284.74030	1078.20190	1874.21057							330.41858	1547.93909	1773.76318	44.64252	1569.11633	1664.83337	155.29254	1504.58948	1827.09338				455.02469	1196.35010	1825.86975	-112.13482	1225.75500	1649.05090	405.75552	929.63507	1982.01111	-151.14539	957.91321	1797.32263				-36.05558	1057.37195	1782.69873				288.01254	592.77161	1933.48816	-58.70815	575.53644	1815.64868	247.50674	94.73421	1879.05872	145.60490	283.13992	1472.97681	
508	5.070	108.04641	1744.08044	1900.63098	283.94418	1078.95898	1881.39185							329.12012	1549.81665	1784.32471	44.86346	1570.65369	1671.91785	153.72394	1505.72693	1836.16052				453.70276	1198.45593	1838.36194	-113.00713	1228.47485	1654.56116	401.11230	931.80109	1993.38611	-154.05086	960.96497	1805.02209				-36.84286	1059.31238	1788.43408				287.56018	592.88013	1935.44507	-63.48658	581.13428	1831.19800	247.50674	94.73421	1879.05872	145.27301	287.39722	1488.77454	
509	5.080	106.91957	1746.02820	1907.66748	283.31348	1079.58179	1888.64587							328.08035	1552.07178	1794.11597	44.95367	1572.35547	1678.68250	151.89684	1507.37134	1843.55945				451.32663	1200.77271	1851.78320	-113.51086	1230.09399	1659.58508	396.24579	933.97180	2005.38940	-156.34193	964.33734	1810.80127				-36.68095	1062.61646	1795.32825				287.29199	593.19666	1939.26013	-67.58175	585.50287	1843.45691	247.50674	94.73421	1879.05872	144.09488	290.14938	1505.89685	
510	5.090	105.88126	1748.19189	1915.55408	282.18695	1080.91614	1896.44360							326.55484	1554.19556	1804.42847	44.75025	1574.51892	1686.56982	150.17697	1509.21497	1851.75439				448.85297	1203.30261	1864.56140	-114.26119	1232.51428	1665.03918	391.20285	936.81274	2018.74963	-158.80034	967.27966	1816.05933				-37.44948	1065.19910	1800.73682				286.81213	593.24310	1941.37195	-72.34401	590.77924	1855.05408	247.50674	94.73421	1879.05872	143.04527	292.07993	1523.24475	
511	5.100	104.92987	1750.58337	1924.52783	281.93289	1081.35999	1902.85730							325.78131	1556.23657	1813.24365	44.78968	1576.26782	1693.12390	149.01585	1510.79626	1859.90515				446.95773	1205.70557	1876.87793	-114.31372	1234.15881	1668.53650	385.80167	939.08514	2029.11902	-161.14381	969.99463	1821.11914				-37.69890	1067.92957	1807.65930				287.28531	593.22101	1945.32837	-76.69498	595.59521	1869.51965	247.50674	94.73421	1879.05872	140.77319	292.22000	1540.29797	
512	5.110	103.54344	1751.53833	1931.57813	281.21375	1082.22766	1909.21179							324.33600	1558.10632	1822.61829	44.37311	1578.01514	1700.07886	147.35829	1511.89526	1866.68201				444.41159	1208.08875	1889.25842	-115.06719	1236.57056	1672.58020	380.17065	941.89697	2042.38794	-163.55493	973.22925	1827.30432				-38.21737	1070.09253	1813.97449				286.70331	593.64325	1947.25366	-81.12135	600.12152	1882.02307	246.98238	95.77407	1879.69580	136.99969	289.85211	1558.65125	
513	5.120	102.15866	1752.74805	1938.54431	280.88654	1082.89331	1916.40747							323.22998	1559.84216	1831.11792	44.72176	1578.70410	1706.43054	146.20576	1513.33569	1874.33203				441.71048	1210.30688	1902.47083	-115.23293	1237.87378	1677.07336	374.35910	943.58307	2053.67383	-165.88783	976.93347	1833.80957				-38.99311	1072.21497	1820.64551				286.39917	593.28760	1950.25317	-85.78426	605.47412	1894.60730	247.14279	95.39491	1879.34692	134.03058	287.70569	1577.27478	
514	5.130	100.68732	1753.97034	1947.20142	280.05179	1083.15063	1922.77905							321.54156	1561.76904	1840.03992	44.06575	1580.26050	1714.11523	144.71490	1514.50317	1881.91003				439.41153	1212.32300	1915.57568	-115.03260	1239.68835	1679.08154	368.61243	947.25531	2065.98120	-168.89664	980.91333	1841.05432				-39.43956	1074.86816	1827.63416				286.45587	593.86987	1953.18237	-90.19691	609.50403	1906.32935	246.57617	96.12532	1880.21289	129.06261	283.74829	1595.81165	
515	5.140	99.05630	1754.99585	1953.66626	279.57977	1083.67200	1928.58813							320.30362	1563.21631	1849.15637	44.34258	1581.03674	1719.84229	143.11967	1515.59692	1889.13354				437.15686	1214.62354	1927.80066	-115.58275	1240.92114	1684.13977	362.10577	948.97113	2077.35327	-171.42664	983.84991	1846.60693				-39.99089	1075.73315	1832.65283				286.22916	593.12000	1954.33252	-94.45837	613.63245	1917.95313	246.29547	96.27267	1880.21069	123.03439	277.80334	1615.04688	
516	5.150	97.64370	1755.93555	1961.44434	279.21829	1084.24475	1935.12634							319.24243	1564.20569	1858.24951	43.80265	1581.57068	1726.72046	141.64653	1516.56665	1897.33459				434.49600	1216.56018	1939.02490	-115.53194	1241.94092	1688.65991	356.04498	953.52942	2091.57080	-174.06390	986.45819	1851.84302				-40.31890	1078.03174	1840.09534				285.74591	593.25458	1957.74084	-98.03419	617.35870	1928.94238	246.24416	96.30573	1880.26929	117.06765	271.03244	1634.96497	
517	5.160	95.65228	1756.74475	1968.47363	277.97351	1084.16809	1940.57947							317.68164	1565.69641	1866.25256	43.41966	1582.86096	1733.33948	140.29735	1517.08508	1903.17090				431.59805	1217.45044	1951.22937	-114.48584	1241.55420	1693.37036	350.79300	956.57074	2103.46191	-176.66656	988.55884	1856.78162				-41.15088	1078.88794	1845.05688				284.95926	592.80920	1959.12061	-101.47029	620.93695	1938.56055	246.20016	96.36884	1880.34021	110.94485	263.13788	1656.04175	
518	5.170	93.71919	1756.81189	1976.30127	277.81726	1084.57568	1947.02478							316.29950	1566.24280	1874.04932	42.87551	1582.84387	1739.48132	138.75864	1517.98596	1911.36523				429.54318	1219.51672	1965.76514	-114.53645	1242.27795	1697.46387	344.56348	956.80157	2112.92236	-179.27008	990.26093	1862.15515				-41.68020	1080.51111	1852.54712				284.62158	592.96118	1962.35571	-104.90862	623.81342	1948.76111	246.03848	96.36475	1880.52051	104.52698	255.50323	1672.77966	
519	5.180	91.87838	1757.20752	1983.32275	276.25250	1084.06897	1952.35095							315.24771	1566.90930	1882.49487	42.32101	1583.78027	1746.50818	136.68219	1517.78955	1917.38794				427.22818	1220.79346	1977.29211	-114.59615	1242.84375	1701.51477	338.42148	958.96173	2123.37793	-181.89716	992.74103	1868.15417				-43.04820	1080.86377	1857.78918				284.02316	593.14819	1964.94019	-107.88273	627.06622	1957.23755	245.90149	96.30682	1880.74292	97.44031	245.04568	1696.31726	
520	5.190	89.90807	1758.03430	1990.25989	275.51236	1084.50378	1958.80579							313.31207	1567.53076	1891.01599	41.22392	1583.73730	1753.08704	135.23004	1518.54309	1925.81433				424.37076	1222.15649	1986.69812	-114.61770	1242.83984	1706.98962	332.42709	961.14185	2135.33911	-184.08765	994.68109	1874.19128				-43.66344	1082.59705	1864.72693				283.33426	593.50226	1967.90149	-110.53867	629.29932	1966.35425	245.86397	96.33230	1880.78638	89.92490	235.40407	1717.11230	
521	5.200	87.84245	1757.90076	1997.29053	274.25339	1084.09644	1963.65894							311.22571	1568.12476	1898.67908	40.57448	1583.93066	1759.90796	133.31769	1517.87866	1931.26404				421.24985	1222.26245	1998.11218	-114.76582	1242.92859	1710.87927	326.36490	963.95251	2146.80054	-186.21928	996.40955	1880.35803				-45.08134	1082.92554	1870.39697				282.92908	592.32080	1969.84790	-113.24899	631.59485	1974.96716	245.81679	96.84799	1881.68469	82.78217	225.28340	1738.02905	
522	5.210	86.00855	1758.15503	2004.20813	273.32544	1083.97742	1969.72424							310.03662	1568.23682	1907.03552	39.21960	1584.57617	1765.71387	131.97122	1518.19739	1939.05200				418.11996	1223.64697	2009.06995	-114.84681	1242.99829	1715.63037	320.36270	966.05402	2157.78955	-188.27841	997.96588	1885.54297				-45.95783	1083.30872	1876.28552				282.23157	592.67151	1973.46240	-117.10450	633.59625	1983.65320	245.39404	96.75554	1882.25549	75.63829	215.48969	1759.14746	
523	5.220	83.55390	1758.67725	2010.69348	272.11261	1084.30469	1975.07532							308.23621	1567.90344	1913.95081	38.62114	1584.07947	1772.27295	129.95520	1517.41638	1944.92273				415.27863	1224.42102	2018.88013	-115.00727	1242.73291	1720.52783	314.59125	968.77283	2170.11743	-191.02887	998.44055	1891.10022				-47.34432	1084.26367	1882.43347				281.29700	592.51050	1976.42200	-119.46911	635.09680	1990.78589	245.25037	96.77650	1882.33740	67.28342	203.90665	1781.88098	
524	5.230	81.76448	1758.61096	2018.24316	270.30453	1083.72925	1980.90955							305.81073	1568.20300	1922.34521	36.85776	1584.13977	1778.63416	127.99938	1517.95386	1952.06580				412.60706	1225.07483	2029.20337	-115.10562	1242.69849	1725.97339	309.04831	970.42798	2179.60449	-192.95187	998.48773	1895.63049				-48.68970	1084.13806	1887.09485				279.88919	593.57489	1980.09717	-121.38573	636.30188	1997.45313	244.92464	96.97935	1882.21436	59.39523	193.27620	1804.43433	
525	5.240	78.94444	1758.31799	2024.29749	268.89417	1084.33301	1987.82935							303.76169	1568.03577	1929.96558	35.42775	1585.02661	1785.75293	125.83730	1517.70251	1958.83411				409.30502	1224.96277	2038.74231	-115.31162	1242.74158	1730.81238	303.47604	973.04248	2191.36328	-195.34557	999.56384	1900.91980				-49.85056	1084.27246	1893.60657				278.66241	593.36224	1983.97559	-122.88241	636.39886	2003.75171	244.93724	97.03212	1882.23657	51.00316	183.21114	1826.41565	
526	5.250	76.37041	1758.73047	2031.60828	267.02267	1083.16345	1992.82288							301.58249	1568.36804	1937.11218	33.63170	1584.64441	1792.11243	123.58835	1517.09338	1964.84326				405.83997	1226.31091	2048.43896	-115.68993	1242.37622	1735.85803	297.05936	975.61859	2201.89819	-197.04553	999.38287	1906.41528				-51.38306	1084.72144	1899.02905				277.42346	592.25983	1986.28906	-124.64867	636.53046	2009.92590	244.80457	97.06654	1882.35706	41.43651	175.13333	1847.45313	
527	5.260	74.03528	1758.68848	2038.53577	265.56268	1083.56384	1999.61133							299.31418	1568.62036	1944.20837	32.61233	1583.84033	1796.99829	121.52887	1517.42493	1972.82617				402.80643	1225.99243	2056.94946	-116.10887	1241.84155	1741.95886	291.29849	977.98920	2212.80518	-198.31981	999.56488	1912.38074				-53.27124	1083.96814	1903.65405				276.86832	592.09265	1988.61011	-125.39226	636.21960	2014.89539	244.74081	97.17744	1882.47156	32.23532	164.92801	1869.11450	
528	5.270	71.63292	1757.90601	2043.83472	263.49954	1082.87646	2005.26038							297.02014	1568.56311	1951.27844	30.69963	1584.56445	1804.31177	119.01645	1516.96667	1978.40112				399.62296	1226.87964	2065.86035	-116.81126	1241.41345	1746.71826	285.74362	980.88794	2223.67017	-199.90453	998.36517	1916.29138				-54.69376	1084.07495	1909.18958				274.78189	592.18256	1993.07263	-126.24268	635.96240	2018.30237	244.59903	97.70632	1882.16956	22.64548	156.18462	1892.67310	
529	5.280	68.82568	1758.01990	2050.38062	261.01965	1082.53809	2011.36304							294.87732	1568.25269	1957.17749	28.36690	1584.24243	1810.24658	116.80419	1516.80859	1984.77551				396.32135	1226.94165	2075.50195	-117.56676	1240.86194	1753.57495	279.98325	982.32574	2232.92090	-202.48833	998.23065	1922.05554				-56.43931	1084.33118	1915.51428				273.63510	592.18634	1995.26282	-126.87570	634.80243	2023.07593	244.58319	97.62619	1882.47314	13.03117	147.43112	1914.30066	
